<svg width="576" height="484" viewBox="0 0 576 484" fill="none" xmlns="http://www.w3.org/2000/svg">
<path opacity="0.3" d="M533.326 361.359H463.822C453.035 361.359 444.286 352.61 444.286 341.823V285.619C444.286 274.832 453.035 266.083 463.822 266.083H533.326C544.113 266.083 552.863 274.832 552.863 285.619V341.823C552.863 352.61 544.113 361.359 533.326 361.359Z" fill="#00E8B0"/>
<path opacity="0.3" d="M22.9266 243.653L21.3099 261.477C21.3099 261.477 20.1008 269.561 26.8529 273.895C30.4259 276.191 40.4385 276.721 40.4385 276.721V255.622C40.4521 255.636 24.421 258.271 22.9266 243.653Z" fill="#005BE3"/>
<path d="M280.701 304.231H250.147C249.155 304.231 248.354 303.43 248.354 302.438V291.638C248.354 290.646 249.155 289.844 250.147 289.844H280.701C281.693 289.844 282.494 290.646 282.494 291.638V302.438C282.494 303.43 281.693 304.231 280.701 304.231Z" stroke="#005BE3" stroke-width="1.5541" stroke-miterlimit="10" stroke-linecap="round"/>
<path d="M58.9564 345.315C63.0681 345.315 66.4014 341.981 66.4014 337.87C66.4014 333.758 63.0681 330.425 58.9564 330.425C54.8447 330.425 51.5115 333.758 51.5115 337.87C51.5115 341.981 54.8447 345.315 58.9564 345.315Z" fill="#00E8B0"/>
<path d="M15.4279 134.18H102.485C110.446 134.18 116.899 140.633 116.899 148.595V161.678H1V148.595C1 140.633 7.45317 134.18 15.4279 134.18Z" stroke="#005BE3" stroke-width="1.5541" stroke-miterlimit="10" stroke-linecap="round"/>
<path d="M116.899 290.347C116.899 313.076 116.899 329.637 116.899 329.637V342.72C116.899 350.681 110.446 357.134 102.485 357.134H15.4144C7.45318 357.134 1 350.681 1 342.72V329.637V161.677H116.899C116.899 161.677 116.899 218.289 116.899 265.77" stroke="#005BE3" stroke-width="1.5541" stroke-miterlimit="10" stroke-linecap="round"/>
<path d="M121.219 420.199H70.8302C62.869 420.199 56.4158 413.746 56.4158 405.784V357.379" stroke="#005BE3" stroke-width="1.5541" stroke-miterlimit="10" stroke-linecap="round" stroke-dasharray="5 5"/>
<path d="M499.105 361.509V411.898C499.105 419.859 492.651 426.312 484.69 426.312H409.113" stroke="#005BE3" stroke-width="1.5541" stroke-miterlimit="10" stroke-linecap="round" stroke-dasharray="5 5"/>
<path d="M75.4088 147.929H42.4907" stroke="#005BE3" stroke-width="1.5541" stroke-miterlimit="10" stroke-linecap="round"/>
<path d="M105.569 327.45L96.0586 295.211C94.6729 289.79 91.0183 283.5 82.4322 283.5H18.6612C9.81693 283.5 7.22207 288.663 4.81741 293.499L1.01343 301.868" stroke="#005BE3" stroke-width="1.5541" stroke-miterlimit="10" stroke-linecap="round"/>
<path d="M187.844 137.359C187.844 80.8157 187.844 13.9335 187.844 13.9335C187.844 6.78749 193.631 1 200.777 1H562.06C569.206 1 574.994 6.78749 574.994 13.9335V214.648C574.994 221.794 569.206 227.581 562.06 227.581C562.06 227.581 427.155 227.581 364.797 227.581" stroke="#005BE3" stroke-width="1.5541" stroke-miterlimit="10" stroke-linecap="round"/>
<path opacity="0.3" d="M541.913 47.2184H510.177C502.134 47.2184 495.626 40.6973 495.626 32.6682C495.626 24.6255 502.148 18.1179 510.177 18.1179H541.913C549.955 18.1179 556.463 24.639 556.463 32.6682C556.463 40.6973 549.955 47.2184 541.913 47.2184Z" fill="#00E8B0"/>
<path d="M508.567 31.9685C507.847 31.9685 507.265 31.6895 506.821 31.1315C506.383 30.5675 506.164 29.7935 506.164 28.8095C506.164 27.8555 506.38 27.0905 506.812 26.5145C507.244 25.9325 507.829 25.6415 508.567 25.6415C509.299 25.6415 509.884 25.9235 510.322 26.4875C510.76 27.0515 510.979 27.8255 510.979 28.8095C510.979 29.7635 510.763 30.5285 510.331 31.1045C509.899 31.6805 509.311 31.9685 508.567 31.9685ZM507.721 30.2945C507.931 30.6545 508.216 30.8345 508.576 30.8345C508.936 30.8345 509.218 30.6605 509.422 30.3125C509.626 29.9585 509.728 29.4575 509.728 28.8095C509.728 28.1795 509.626 27.6845 509.422 27.3245C509.218 26.9645 508.936 26.7845 508.576 26.7845C508.216 26.7845 507.931 26.9615 507.721 27.3155C507.517 27.6635 507.415 28.1615 507.415 28.8095C507.415 29.4335 507.517 29.9285 507.721 30.2945ZM513.103 31.8965V27.1895L512.068 27.9635L511.483 27.0545L513.355 25.7135H514.336V31.8965H513.103ZM516.263 28.8635C516.059 28.8635 515.885 28.7945 515.741 28.6565C515.603 28.5185 515.534 28.3505 515.534 28.1525C515.534 27.9545 515.603 27.7865 515.741 27.6485C515.885 27.5045 516.059 27.4325 516.263 27.4325C516.461 27.4325 516.632 27.5045 516.776 27.6485C516.92 27.7865 516.992 27.9545 516.992 28.1525C516.992 28.3505 516.92 28.5185 516.776 28.6565C516.632 28.7945 516.461 28.8635 516.263 28.8635ZM516.263 31.9685C516.059 31.9685 515.885 31.8995 515.741 31.7615C515.603 31.6235 515.534 31.4555 515.534 31.2575C515.534 31.0595 515.603 30.8915 515.741 30.7535C515.885 30.6095 516.059 30.5375 516.263 30.5375C516.461 30.5375 516.632 30.6095 516.776 30.7535C516.92 30.8915 516.992 31.0595 516.992 31.2575C516.992 31.4555 516.92 31.6235 516.776 31.7615C516.632 31.8995 516.461 31.9685 516.263 31.9685ZM520.344 31.8965V30.8885H517.725V30.1055L520.56 25.7135H521.55V29.8355H522.378V30.8885H521.55V31.8965H520.344ZM519.057 29.8985H520.434V27.6845L519.057 29.8985ZM525.236 27.9095C525.776 27.9095 526.232 28.0925 526.604 28.4585C526.976 28.8245 527.162 29.3045 527.162 29.8985C527.162 30.5045 526.949 31.0025 526.523 31.3925C526.103 31.7765 525.578 31.9685 524.948 31.9685C524.042 31.9685 523.331 31.6445 522.815 30.9965L523.697 30.2855C523.985 30.6635 524.381 30.8525 524.885 30.8525C525.179 30.8525 525.425 30.7595 525.623 30.5735C525.821 30.3875 525.92 30.1565 525.92 29.8805C525.92 29.5745 525.812 29.3375 525.596 29.1695C525.38 28.9955 525.134 28.9085 524.858 28.9085C524.504 28.9085 524.195 29.0135 523.931 29.2235L523.283 28.9805L523.472 25.7135H526.847V26.8295H524.534L524.462 28.0445C524.75 27.9545 525.008 27.9095 525.236 27.9095Z" fill="#005BE3"/>
<path opacity="0.3" d="M493.643 84.9186C493.819 91.5892 492.597 102.145 500.123 103.816C500.123 103.816 507.011 103.069 507.65 109.128V75.531C507.65 70.9526 502.012 68.5615 502.012 68.5615L467.3 48.6314C462.749 46.2131 460.439 44.8274 456.54 44.8274C447.098 44.8274 439.436 52.4897 439.436 61.9317C439.436 71.2379 445.237 74.7566 445.237 74.7566C445.237 74.7566 441.025 76.251 441.501 81.6581L443.58 104.17C445.237 103.001 447.098 102.621 447.098 102.621C447.098 102.621 447.098 92.3907 447.098 85.8153C447.098 79.2398 455.562 79.0089 455.562 79.0089C455.44 78.9953 455.331 78.9817 455.209 78.9681C455.644 79.0089 456.092 79.0361 456.54 79.0361H487.855C487.855 79.0361 493.466 78.2481 493.643 84.9186Z" fill="#005BE3"/>
<path d="M484.322 158.512H474.541C459.379 158.512 447.098 146.23 447.098 131.069V85.8015C447.098 85.8015 447.071 79.0222 456.54 79.0222" stroke="#005BE3" stroke-width="1.5541" stroke-miterlimit="10" stroke-linecap="round"/>
<path d="M476.376 106.588C477.231 106.588 477.925 105.894 477.925 105.039C477.925 104.183 477.231 103.49 476.376 103.49C475.521 103.49 474.827 104.183 474.827 105.039C474.827 105.894 475.521 106.588 476.376 106.588Z" fill="#005BE3"/>
<path d="M467.191 105.039V124.983C467.191 124.983 467.191 129.33 470.913 129.33" stroke="#005BE3" stroke-width="0.6815" stroke-miterlimit="10" stroke-linecap="round"/>
<path d="M499.131 104.278C499.131 104.278 494.159 102.879 494.036 98.0289L493.642 84.9051C493.642 84.9051 493.751 79.0361 487.855 79.0361H456.54" stroke="#005BE3" stroke-width="1.6461" stroke-miterlimit="10" stroke-linecap="round"/>
<path d="M479.5 129.33C479.5 129.33 479.079 137.753 470.914 137.753" stroke="#005BE3" stroke-width="0.6815" stroke-miterlimit="10" stroke-linecap="round"/>
<path d="M500.124 110.976C500.124 110.976 500.314 107.28 503.887 107.28" stroke="#005BE3" stroke-width="0.5864" stroke-miterlimit="10" stroke-linecap="round"/>
<path d="M460.752 97.7705L453.905 99.2514C452.18 99.6318 450.468 98.5313 450.087 96.7924C449.707 95.067 450.807 93.3552 452.546 92.9884L459.394 91.5076C461.119 91.1272 462.831 92.2276 463.198 93.9665C463.592 95.6919 462.491 97.3901 460.752 97.7705Z" fill="#005BE3"/>
<path d="M458.211 106.588C459.066 106.588 459.76 105.894 459.76 105.039C459.76 104.183 459.066 103.49 458.211 103.49C457.356 103.49 456.662 104.183 456.662 105.039C456.662 105.894 457.356 106.588 458.211 106.588Z" fill="#005BE3"/>
<path d="M502.012 114.766C505.125 114.766 507.65 112.242 507.65 109.128C507.65 106.014 505.125 103.49 502.012 103.49C498.898 103.49 496.374 106.014 496.374 109.128C496.374 112.242 498.898 114.766 502.012 114.766Z" stroke="#005BE3" stroke-width="1.5541" stroke-miterlimit="10" stroke-linecap="round"/>
<path d="M447.098 103.49C443.987 103.49 441.46 106.017 441.46 109.128C441.46 112.239 443.987 114.766 447.098 114.766" stroke="#005BE3" stroke-width="1.5541" stroke-miterlimit="10" stroke-linecap="round"/>
<path d="M502.012 114.766V179.679H470.914V158.512" stroke="#005BE3" stroke-width="1.6461" stroke-miterlimit="10" stroke-linecap="round"/>
<path d="M472.545 97.7705L479.392 99.2514C481.117 99.6318 482.829 98.5313 483.196 96.7924C483.576 95.067 482.476 93.3552 480.737 92.9884L473.89 91.5076C472.164 91.1272 470.452 92.2276 470.086 93.9665C469.719 95.6919 470.819 97.3901 472.545 97.7705Z" fill="#005BE3"/>
<path d="M470.914 173.049C470.914 173.049 485.22 172.288 485.22 158.512H470.914V173.049Z" fill="#005BE3"/>
<path d="M506.087 72.1347C506.087 72.1347 508.668 68.2899 505.286 65.4641" stroke="#005BE3" stroke-width="1.6461" stroke-miterlimit="10" stroke-linecap="round"/>
<path d="M512.2 74.8927C512.2 74.8927 510.231 70.6947 506.087 72.1348" stroke="#005BE3" stroke-width="1.6461" stroke-miterlimit="10" stroke-linecap="round"/>
<path d="M506.821 61.2385C511.018 66.4826 506.087 72.1342 506.087 72.1342" stroke="#005BE3" stroke-width="1.6461" stroke-miterlimit="10" stroke-linecap="round"/>
<path opacity="0.3" d="M40.6565 217.256C40.8331 210.586 45.9684 213.439 45.9684 213.439C45.9684 213.439 85.1087 234.279 87.2145 218.153C87.2145 224.728 84.7419 235.733 84.7419 235.733C84.7419 235.733 87.5949 240.202 89.2387 241.371L92.8118 213.996C94.7817 198.413 77.2426 189.433 59.7035 188.794C46.8379 188.74 42.966 197.014 42.966 197.014C42.966 197.014 39.4881 202.298 38.3877 209.58C36.9476 219.049 37.8035 231.1 37.8035 231.1C39.3522 231.385 40.2625 232.499 40.2625 232.499C40.3983 227.201 40.4799 223.927 40.6565 217.256Z" fill="#005BE3"/>
<path d="M57.9374 238.939C58.7928 238.939 59.4862 238.246 59.4862 237.39C59.4862 236.535 58.7928 235.842 57.9374 235.842C57.0821 235.842 56.3887 236.535 56.3887 237.39C56.3887 238.246 57.0821 238.939 57.9374 238.939Z" fill="#005BE3"/>
<path d="M67.1216 237.39V241.031C67.1216 241.031 67.2439 245.379 63.3992 245.379" stroke="#005BE3" stroke-width="0.6815" stroke-miterlimit="10" stroke-linecap="round"/>
<path d="M40.2622 232.526L40.6562 217.27C40.6562 217.27 40.5203 210.776 45.9682 213.452C51.416 216.128 71.5092 224.81 80.4486 224.171C86.4262 223.75 87.2142 218.166 87.2142 218.166L83.1385 247.131C80.4622 263.42 70.8571 271.857 55.6955 271.857H54.5815" stroke="#005BE3" stroke-width="1.5541" stroke-miterlimit="10" stroke-linecap="round"/>
<path d="M56.4292 249.019C56.4292 249.019 59.88 256.709 67.4879 253.747" stroke="#005BE3" stroke-width="0.6815" stroke-miterlimit="10" stroke-linecap="round"/>
<path d="M72.0255 238.939C72.8809 238.939 73.5743 238.246 73.5743 237.39C73.5743 236.535 72.8809 235.842 72.0255 235.842C71.1702 235.842 70.4768 236.535 70.4768 237.39C70.4768 238.246 71.1702 238.939 72.0255 238.939Z" fill="#005BE3"/>
<path d="M40.4526 255.635V283.486H59.3231V271.843" stroke="#005BE3" stroke-width="1.5541" stroke-miterlimit="10" stroke-linecap="round"/>
<path d="M59.1735 281.625C59.1735 281.625 53.6169 281.109 53.6169 271.843H59.1735V281.625Z" fill="#005BE3"/>
<path d="M552.862 226.739V194.011C552.862 186.091 546.436 179.665 538.529 179.665H446.432C435.591 179.665 432.425 185.996 429.477 191.906L420.402 211.415" stroke="#005BE3" stroke-width="1.5541" stroke-miterlimit="10" stroke-linecap="round"/>
<path d="M420.402 165.535H382.498" stroke="#005BE3" stroke-width="1.5541" stroke-miterlimit="10" stroke-linecap="round"/>
<path d="M382.498 226.916V127.048C382.498 124.955 384.196 123.257 386.288 123.257C388.381 123.257 390.079 124.955 390.079 127.048V122.551C390.079 120.459 391.777 118.76 393.869 118.76C395.961 118.76 397.66 120.459 397.66 122.551V119.888C397.66 117.796 399.358 116.098 401.45 116.098C403.542 116.098 405.24 117.796 405.24 119.888V124.317C405.24 122.225 406.939 120.527 409.031 120.527C411.123 120.527 412.821 122.225 412.821 124.317V134.873C412.821 132.781 414.519 131.083 416.612 131.083C418.704 131.083 420.402 132.781 420.402 134.873V157.086V219.077" stroke="#005BE3" stroke-width="1.5541" stroke-miterlimit="10" stroke-linecap="round"/>
<path d="M390.079 127.034V142.535" stroke="#005BE3" stroke-width="1.5541" stroke-miterlimit="10" stroke-linecap="round"/>
<path d="M397.66 122.537V139.615" stroke="#005BE3" stroke-width="1.5541" stroke-miterlimit="10" stroke-linecap="round"/>
<path d="M405.241 124.29V136.177" stroke="#005BE3" stroke-width="1.5541" stroke-miterlimit="10" stroke-linecap="round"/>
<path d="M412.822 134.859V148.907" stroke="#005BE3" stroke-width="1.5541" stroke-miterlimit="10" stroke-linecap="round"/>
<path d="M408.651 149.681C402.578 149.681 397.66 154.599 397.66 160.672" stroke="#005BE3" stroke-width="0.6815" stroke-miterlimit="10" stroke-linecap="round"/>
<path d="M420.402 171.622H382.498" stroke="#005BE3" stroke-width="0.6815" stroke-miterlimit="10" stroke-linecap="round"/>
<path d="M450.821 227.038L449.979 208.439L441.854 226.943L450.821 227.038Z" fill="#005BE3"/>
<path d="M526.547 226.848V208.67" stroke="#005BE3" stroke-width="1.6461" stroke-miterlimit="10" stroke-linecap="round"/>
<path d="M450.821 226.943V208.765" stroke="#005BE3" stroke-width="1.6461" stroke-miterlimit="10" stroke-linecap="round"/>
<path d="M161.148 304.231H130.594C129.602 304.231 128.8 303.43 128.8 302.438V291.638C128.8 290.646 129.602 289.844 130.594 289.844H161.148C162.139 289.844 162.941 290.646 162.941 291.638V302.438C162.941 303.43 162.139 304.231 161.148 304.231Z" stroke="#005BE3" stroke-width="1.5541" stroke-miterlimit="10" stroke-linecap="round"/>
<path d="M422.06 289.844H108.001C106.52 289.844 105.311 288.635 105.311 287.154V276.911C105.311 275.43 106.52 274.221 108.001 274.221H422.06C423.541 274.221 424.75 275.43 424.75 276.911V287.154C424.75 288.649 423.541 289.844 422.06 289.844Z" stroke="#005BE3" stroke-width="1.5541" stroke-miterlimit="10" stroke-linecap="round"/>
<path d="M419.383 274.234H110.677C108.965 274.234 108.245 272.06 109.617 271.042L263.964 156.569C264.589 156.107 265.444 156.107 266.069 156.569L420.416 271.042C421.802 272.06 421.082 274.234 419.383 274.234Z" stroke="#005BE3" stroke-width="1.5541" stroke-miterlimit="10" stroke-linecap="round"/>
<path d="M126.246 274.316C166.134 244.74 263.964 172.179 263.964 172.179C264.589 171.717 265.445 171.717 266.07 172.179C266.07 172.179 363.261 244.251 403.393 274.031" stroke="#005BE3" stroke-width="1.5541" stroke-miterlimit="10" stroke-linecap="round"/>
<path d="M132.292 404.494V304.666" stroke="#005BE3" stroke-width="1.5541" stroke-miterlimit="10" stroke-linecap="round"/>
<path d="M159.449 304.666V404.494" stroke="#005BE3" stroke-width="1.5541" stroke-miterlimit="10" stroke-linecap="round"/>
<path d="M167.655 440.074H124.072C122.673 440.074 121.545 438.947 121.545 437.547V406.993C121.545 405.594 122.673 404.466 124.072 404.466H167.655C169.054 404.466 170.182 405.594 170.182 406.993V440.074C170.182 440.074 169.054 440.074 167.655 440.074Z" stroke="#005BE3" stroke-width="1.5541" stroke-miterlimit="10" stroke-linecap="round"/>
<path d="M251.845 404.494V304.666" stroke="#005BE3" stroke-width="1.5541" stroke-miterlimit="10" stroke-linecap="round"/>
<path d="M279.003 304.666V404.494" stroke="#005BE3" stroke-width="1.5541" stroke-miterlimit="10" stroke-linecap="round"/>
<path d="M287.209 440.074H243.626C242.227 440.074 241.099 438.947 241.099 437.547V406.993C241.099 405.594 242.227 404.466 243.626 404.466H287.209C288.608 404.466 289.736 405.594 289.736 406.993V437.547C289.736 438.947 288.608 440.074 287.209 440.074Z" stroke="#005BE3" stroke-width="1.5541" stroke-miterlimit="10" stroke-linecap="round"/>
<path d="M398.897 304.231H368.343C367.351 304.231 366.549 303.43 366.549 302.438V291.638C366.549 290.646 367.351 289.844 368.343 289.844H398.897C399.888 289.844 400.69 290.646 400.69 291.638V302.438C400.69 303.43 399.888 304.231 398.897 304.231Z" stroke="#005BE3" stroke-width="1.5541" stroke-miterlimit="10" stroke-linecap="round"/>
<path d="M370.04 404.494V304.666" stroke="#005BE3" stroke-width="1.5541" stroke-miterlimit="10" stroke-linecap="round"/>
<path d="M397.198 304.666V404.494" stroke="#005BE3" stroke-width="1.5541" stroke-miterlimit="10" stroke-linecap="round"/>
<path d="M405.404 440.074H361.821C360.422 440.074 359.294 438.947 359.294 437.547V406.993C359.294 405.594 360.422 404.466 361.821 404.466H405.404C406.803 404.466 407.931 405.594 407.931 406.993V437.547C407.931 438.947 406.803 440.074 405.404 440.074Z" stroke="#005BE3" stroke-width="1.5541" stroke-miterlimit="10" stroke-linecap="round"/>
<path d="M361.821 440.074L381.411 482.19" stroke="#005BE3" stroke-width="1.6461" stroke-miterlimit="10" stroke-linecap="round"/>
<path d="M405.675 440.074L425.266 482.19" stroke="#005BE3" stroke-width="1.5541" stroke-miterlimit="10" stroke-linecap="round"/>
<path d="M167.981 440.074L148.39 482.19" stroke="#005BE3" stroke-width="1.6461" stroke-miterlimit="10" stroke-linecap="round"/>
<path d="M124.127 440.074L104.536 482.19" stroke="#005BE3" stroke-width="1.5541" stroke-miterlimit="10" stroke-linecap="round"/>
<path d="M167.655 440.074H361.821" stroke="#005BE3" stroke-width="1.5541" stroke-miterlimit="10" stroke-linecap="round"/>
<path d="M158.145 461.811H371.331" stroke="#005BE3" stroke-width="1.5541" stroke-miterlimit="10" stroke-linecap="round"/>
<path d="M104.536 482.19H425.266" stroke="#005BE3" stroke-width="1.6461" stroke-miterlimit="10" stroke-linecap="round"/>
<path d="M159.286 482.19L159.694 461.811H170.182V440.074H167.655L148.39 482.19H159.286Z" fill="#005BE3"/>
<path opacity="0.3" d="M326.417 253.191C327.001 253.191 327.246 252.443 326.784 252.09L265.418 206.578C265.132 206.361 264.738 206.361 264.453 206.578C264.453 206.578 221.971 238.083 202.896 252.226C202.421 252.579 202.679 253.327 203.263 253.327L326.417 253.191Z" fill="#00E8B0"/>
<path d="M227.5 439.857V359.539C227.5 357.922 226.182 356.604 224.566 356.604H188.142C186.526 356.604 185.208 357.922 185.208 359.539V439.857" stroke="#005BE3" stroke-width="1.5541" stroke-miterlimit="10" stroke-linecap="round"/>
<path d="M345.695 439.857V359.539C345.695 357.922 344.377 356.604 342.76 356.604H306.337C304.721 356.604 303.403 357.922 303.403 359.539V439.857" stroke="#005BE3" stroke-width="1.5541" stroke-miterlimit="10" stroke-linecap="round"/>
<path d="M164.883 230.176V145.293C164.883 140.905 168.443 137.346 172.831 137.346H356.767C361.155 137.346 364.715 140.905 364.715 145.293V228.818" stroke="#005BE3" stroke-width="1.5541" stroke-miterlimit="10" stroke-linecap="round"/>
<path d="M202.489 136.53C202.489 101.887 230.57 73.8052 265.214 73.8052C299.857 73.8052 327.939 101.887 327.939 136.53" stroke="#005BE3" stroke-width="1.5541" stroke-miterlimit="10" stroke-linecap="round"/>
<path d="M265.213 33.0488V73.8058" stroke="#005BE3" stroke-width="1.6461" stroke-miterlimit="10" stroke-linecap="round"/>
<path d="M296.42 39.5019L301.311 47.3H264.086V31.7173H301.311L296.42 39.5019Z" fill="#00E8B0"/>
<path d="M223.084 136.53C223.084 101.887 241.941 73.8052 265.213 73.8052C288.485 73.8052 307.342 101.887 307.342 136.53" stroke="#005BE3" stroke-width="0.6815" stroke-miterlimit="10" stroke-linecap="round"/>
<path d="M247.933 136.53C247.933 101.887 255.663 73.8052 265.214 73.8052C274.764 73.8052 282.495 101.887 282.495 136.53" stroke="#005BE3" stroke-width="0.6815" stroke-miterlimit="10" stroke-linecap="round"/>
<path d="M164.883 148.581H364.715" stroke="#005BE3" stroke-width="1.5541" stroke-miterlimit="10" stroke-linecap="round"/>
<path d="M105.311 282.046H424.75" stroke="#005BE3" stroke-width="0.6815" stroke-miterlimit="10" stroke-linecap="round"/>
<path d="M265.417 304.666V404.494" stroke="#005BE3" stroke-width="0.6815" stroke-miterlimit="10" stroke-linecap="round"/>
<path d="M383.626 404.494V304.666" stroke="#005BE3" stroke-width="0.6815" stroke-miterlimit="10" stroke-linecap="round"/>
<path d="M145.863 304.666V404.494" stroke="#005BE3" stroke-width="0.6815" stroke-miterlimit="10" stroke-linecap="round"/>
<path d="M370.516 482.19L370.108 461.811H359.62V440.074H362.147L381.412 482.19H370.516Z" fill="#005BE3"/>
<path d="M248.354 303.498V290.293C175.426 290.293 162.941 290.293 162.941 290.293C162.941 290.293 162.751 293.39 162.724 296.189C199.147 302.52 251.845 311.677 251.845 311.677V304.68L248.354 303.498Z" fill="#005BE3"/>
<path d="M370.041 304.667L367.079 303.525L366.631 290.293C345.138 290.293 314.57 290.293 282.495 290.293V302.452L278.799 305.196L278.976 316.405L370.041 332.232V304.667Z" fill="#005BE3"/>
<path d="M69.3771 230.584L72.7871 232.635C73.643 233.152 74.7706 232.88 75.2868 232.01C75.8031 231.155 75.5313 230.027 74.6619 229.511L71.2519 227.459C70.396 226.943 69.2684 227.215 68.7521 228.084C68.2495 228.94 68.5212 230.068 69.3771 230.584Z" fill="#005BE3"/>
<path d="M35.1676 249.753C38.5365 249.753 41.2675 247.022 41.2675 243.653C41.2675 240.284 38.5365 237.553 35.1676 237.553C31.7987 237.553 29.0676 240.284 29.0676 243.653C29.0676 247.022 31.7987 249.753 35.1676 249.753Z" fill="#00E8B0"/>
<path d="M35.1673 255.907C41.9352 255.907 47.4216 250.421 47.4216 243.653C47.4216 236.885 41.9352 231.399 35.1673 231.399C28.3995 231.399 22.9131 236.885 22.9131 243.653C22.9131 250.421 28.3995 255.907 35.1673 255.907Z" stroke="#005BE3" stroke-width="1.5541" stroke-miterlimit="10" stroke-linecap="round"/>
<path d="M84.6604 236.833C87.4455 239.075 89.2388 242.526 89.2388 246.384C89.2388 252.144 85.2582 256.981 79.8918 258.285" stroke="#005BE3" stroke-width="1.5541" stroke-miterlimit="10" stroke-linecap="round"/>
<path d="M43.2515 252.837L47.9929 260.839H53.1282" stroke="#005BE3" stroke-width="1.5541" stroke-miterlimit="10" stroke-linecap="round"/>
<path d="M63.6299 262.945H54.5683C53.0331 262.945 51.7832 261.695 51.7832 260.16C51.7832 258.624 53.0331 257.375 54.5683 257.375H63.6299C65.1651 257.375 66.4149 258.624 66.4149 260.16C66.4149 261.695 65.1651 262.945 63.6299 262.945Z" fill="#005BE3"/>
<path d="M59.7172 229.606L56.3072 231.657C55.4513 232.173 54.3237 231.902 53.8074 231.032C53.2912 230.176 53.5629 229.049 54.4324 228.532L57.8424 226.481C58.6983 225.965 59.8259 226.236 60.3421 227.106C60.8584 227.975 60.5867 229.089 59.7172 229.606Z" fill="#005BE3"/>
<path opacity="0.3" d="M75.3135 252.674C77.6695 252.674 79.5794 250.764 79.5794 248.408C79.5794 246.052 77.6695 244.142 75.3135 244.142C72.9575 244.142 71.0476 246.052 71.0476 248.408C71.0476 250.764 72.9575 252.674 75.3135 252.674Z" fill="#005BE3"/>
<path opacity="0.3" d="M53.617 252.185C55.973 252.185 57.8829 250.275 57.8829 247.919C57.8829 245.563 55.973 243.653 53.617 243.653C51.261 243.653 49.3511 245.563 49.3511 247.919C49.3511 250.275 51.261 252.185 53.617 252.185Z" fill="#005BE3"/>
<path d="M59.9077 188.822C37.3555 187.653 31.0518 201.687 31.0518 217.813V232.133" stroke="#005BE3" stroke-width="1.3265" stroke-miterlimit="10" stroke-linecap="round"/>
<path d="M59.9073 188.822C43.7812 188.822 37.8035 201.687 37.8035 217.814V231.127" stroke="#005BE3" stroke-width="1.3265" stroke-miterlimit="10" stroke-linecap="round"/>
<path opacity="0.3" d="M31.0375 217.813C31.2142 211.143 31.6081 197.802 44.7183 190.465C35.3849 193.074 28.0487 198.766 26.663 207.882L22.8726 241.479C26.7716 232.132 31.0511 232.132 31.0511 232.132V217.813H31.0375Z" fill="#005BE3"/>
<path d="M156.026 79.2803V114.032C156.026 116.26 153.662 117.714 151.679 116.695L132.17 106.737C131.572 106.438 130.92 106.275 130.241 106.275H67.0809C58.6849 106.275 51.8921 99.4686 51.8921 91.0862V52.1226C51.8921 43.7267 58.6985 36.9338 67.0809 36.9338H140.837C149.233 36.9338 156.026 43.7402 156.026 52.1226V87.0105" stroke="#005BE3" stroke-width="1.5541" stroke-miterlimit="10" stroke-linecap="round"/>
<path opacity="0.3" d="M70.721 60.3695H135.606C138.174 60.3695 140.252 58.2909 140.252 55.7232C140.252 53.1555 138.174 51.0769 135.606 51.0769H70.721C68.1533 51.0769 66.0747 53.1555 66.0747 55.7232C66.0747 58.2909 68.1533 60.3695 70.721 60.3695Z" fill="#005BE3"/>
<path opacity="0.3" d="M68.6831 77.9493H82.7171C84.1572 77.9493 85.3256 76.7809 85.3256 75.3409C85.3256 73.9008 84.1572 72.7324 82.7171 72.7324H68.6831C67.2431 72.7324 66.0747 73.9008 66.0747 75.3409C66.0747 76.7809 67.2431 77.9493 68.6831 77.9493Z" fill="#005BE3"/>
<path d="M68.6831 88.6817H101.737C103.177 88.6817 104.345 87.5134 104.345 86.0733C104.345 84.6332 103.177 83.4648 101.737 83.4648H68.6831C67.2431 83.4648 66.0747 84.6332 66.0747 86.0733C66.0747 87.5134 67.2431 88.6817 68.6831 88.6817Z" fill="#00E8B0"/>
<path d="M115.948 84.6741L120.132 88.8449L131.49 77.4873" stroke="#005BE3" stroke-width="1.6461" stroke-miterlimit="10" stroke-linecap="round" stroke-linejoin="round"/>
<path d="M526.697 301.691L513.002 305.196V304.028C513.002 300.169 509.878 297.045 506.019 297.045H480.818C476.96 297.045 473.835 300.169 473.835 304.028V324.026C473.835 327.884 476.96 331.009 480.818 331.009H506.019C509.878 331.009 513.002 327.884 513.002 324.026V322.857L526.697 326.363C528.626 326.363 530.188 324.8 530.188 322.871V305.183C530.188 303.253 528.626 301.691 526.697 301.691Z" fill="#00E8B0"/>
</svg>
